<mxfile host="app.diagrams.net" modified="2022-06-19T14:24:27.586Z" agent="5.0 (X11; Linux x86_64) AppleWebKit/537.36 (KHTML, like Gecko) Chrome/102.0.0.0 Safari/537.36" etag="6GNk899Eq6Jm7IuATC2a" version="20.0.1" type="github">
  <diagram id="C5RBs43oDa-KdzZeNtuy" name="Page-1">
    <mxGraphModel dx="1662" dy="800" grid="1" gridSize="10" guides="1" tooltips="1" connect="1" arrows="1" fold="1" page="1" pageScale="1" pageWidth="827" pageHeight="1169" math="0" shadow="0">
      <root>
        <mxCell id="WIyWlLk6GJQsqaUBKTNV-0" />
        <mxCell id="WIyWlLk6GJQsqaUBKTNV-1" parent="WIyWlLk6GJQsqaUBKTNV-0" />
        <mxCell id="UaDYoVtovKC5BsyJQfSs-13" style="edgeStyle=orthogonalEdgeStyle;rounded=0;orthogonalLoop=1;jettySize=auto;html=1;entryX=0.5;entryY=0;entryDx=0;entryDy=0;strokeWidth=2;" parent="WIyWlLk6GJQsqaUBKTNV-1" source="UaDYoVtovKC5BsyJQfSs-0" target="UaDYoVtovKC5BsyJQfSs-9" edge="1">
          <mxGeometry relative="1" as="geometry">
            <Array as="points">
              <mxPoint x="205" y="360" />
              <mxPoint x="205" y="360" />
            </Array>
          </mxGeometry>
        </mxCell>
        <mxCell id="UaDYoVtovKC5BsyJQfSs-0" value="Proxy CurrencyConverter" style="swimlane;fontStyle=1;childLayout=stackLayout;horizontal=1;startSize=30;horizontalStack=0;resizeParent=1;resizeParentMax=0;resizeLast=0;collapsible=1;marginBottom=0;shadow=1;rounded=1;sketch=1;" parent="WIyWlLk6GJQsqaUBKTNV-1" vertex="1">
          <mxGeometry x="80" y="200" width="260" height="160" as="geometry" />
        </mxCell>
        <mxCell id="UaDYoVtovKC5BsyJQfSs-1" value="+ convert(currency_from: string, currency_to: &#xa;string, amount: float): float" style="text;align=left;verticalAlign=middle;spacingLeft=4;spacingRight=4;overflow=hidden;points=[[0,0.5],[1,0.5]];portConstraint=eastwest;rotatable=0;fontStyle=2;shadow=0;labelBorderColor=none;labelBackgroundColor=none;" parent="UaDYoVtovKC5BsyJQfSs-0" vertex="1">
          <mxGeometry y="30" width="260" height="40" as="geometry" />
        </mxCell>
        <mxCell id="UaDYoVtovKC5BsyJQfSs-2" value="+ currency_exists(currency: string): boolean" style="text;align=left;verticalAlign=middle;spacingLeft=4;spacingRight=4;overflow=hidden;points=[[0,0.5],[1,0.5]];portConstraint=eastwest;rotatable=0;shadow=0;fontStyle=2;labelBorderColor=none;labelBackgroundColor=none;" parent="UaDYoVtovKC5BsyJQfSs-0" vertex="1">
          <mxGeometry y="70" width="260" height="20" as="geometry" />
        </mxCell>
        <mxCell id="UaDYoVtovKC5BsyJQfSs-3" value="+ currencies_available(): list" style="text;align=left;verticalAlign=middle;spacingLeft=4;spacingRight=4;overflow=hidden;points=[[0,0.5],[1,0.5]];portConstraint=eastwest;rotatable=0;shadow=0;fontStyle=2;labelBorderColor=none;labelBackgroundColor=none;" parent="UaDYoVtovKC5BsyJQfSs-0" vertex="1">
          <mxGeometry y="90" width="260" height="30" as="geometry" />
        </mxCell>
        <mxCell id="qdc2zQFaUFo1kG0h4Ac9-0" value="&lt;i&gt;&lt;span style=&quot;color: rgb(0, 0, 0); font-family: Helvetica; font-size: 12px; font-variant-ligatures: normal; font-variant-caps: normal; font-weight: 400; letter-spacing: normal; orphans: 2; text-align: left; text-indent: 0px; text-transform: none; widows: 2; word-spacing: 0px; -webkit-text-stroke-width: 0px; background-color: rgb(248, 249, 250); text-decoration-thickness: initial; text-decoration-style: initial; text-decoration-color: initial; float: none; display: inline !important;&quot;&gt;&amp;nbsp;+ doOperation(o:RemoteObjectRef,&lt;/span&gt;&lt;br style=&quot;padding: 0px; margin: 0px; color: rgb(0, 0, 0); font-family: Helvetica; font-size: 12px; font-variant-ligatures: normal; font-variant-caps: normal; font-weight: 400; letter-spacing: normal; orphans: 2; text-align: left; text-indent: 0px; text-transform: none; widows: 2; word-spacing: 0px; -webkit-text-stroke-width: 0px; background-color: rgb(248, 249, 250); text-decoration-thickness: initial; text-decoration-style: initial; text-decoration-color: initial;&quot;&gt;&lt;span style=&quot;color: rgb(0, 0, 0); font-family: Helvetica; font-size: 12px; font-variant-ligatures: normal; font-variant-caps: normal; font-weight: 400; letter-spacing: normal; orphans: 2; text-align: left; text-indent: 0px; text-transform: none; widows: 2; word-spacing: 0px; -webkit-text-stroke-width: 0px; background-color: rgb(248, 249, 250); text-decoration-thickness: initial; text-decoration-style: initial; text-decoration-color: initial; float: none; display: inline !important;&quot;&gt;methodId: int, arguments: bytes): String&lt;/span&gt;&lt;/i&gt;" style="text;whiteSpace=wrap;html=1;" parent="UaDYoVtovKC5BsyJQfSs-0" vertex="1">
          <mxGeometry y="120" width="260" height="40" as="geometry" />
        </mxCell>
        <mxCell id="UaDYoVtovKC5BsyJQfSs-6" style="edgeStyle=orthogonalEdgeStyle;rounded=0;orthogonalLoop=1;jettySize=auto;html=1;strokeWidth=2;" parent="WIyWlLk6GJQsqaUBKTNV-1" source="UaDYoVtovKC5BsyJQfSs-4" target="UaDYoVtovKC5BsyJQfSs-0" edge="1">
          <mxGeometry relative="1" as="geometry">
            <Array as="points">
              <mxPoint x="205" y="100" />
            </Array>
          </mxGeometry>
        </mxCell>
        <mxCell id="UaDYoVtovKC5BsyJQfSs-4" value="&lt;b&gt;User&lt;/b&gt;" style="shape=umlActor;verticalLabelPosition=bottom;verticalAlign=top;html=1;outlineConnect=0;shadow=0;sketch=1;" parent="WIyWlLk6GJQsqaUBKTNV-1" vertex="1">
          <mxGeometry x="140" y="70" width="30" height="60" as="geometry" />
        </mxCell>
        <mxCell id="FW9dBRoeOiZbywd23JoA-8" style="edgeStyle=orthogonalEdgeStyle;rounded=0;orthogonalLoop=1;jettySize=auto;html=1;entryX=0.5;entryY=0;entryDx=0;entryDy=0;fontSize=11;strokeWidth=2;" parent="WIyWlLk6GJQsqaUBKTNV-1" source="UaDYoVtovKC5BsyJQfSs-9" target="UaDYoVtovKC5BsyJQfSs-14" edge="1">
          <mxGeometry relative="1" as="geometry" />
        </mxCell>
        <mxCell id="UaDYoVtovKC5BsyJQfSs-9" value="UDPClient" style="swimlane;fontStyle=1;childLayout=stackLayout;horizontal=1;startSize=30;horizontalStack=0;resizeParent=1;resizeParentMax=0;resizeLast=0;collapsible=1;marginBottom=0;shadow=1;rounded=1;sketch=1;" parent="WIyWlLk6GJQsqaUBKTNV-1" vertex="1">
          <mxGeometry x="90" y="430" width="230" height="80" as="geometry" />
        </mxCell>
        <mxCell id="UaDYoVtovKC5BsyJQfSs-10" value="+ sendRequest(request : String): void&#xa;+ getResponse(): String" style="text;align=left;verticalAlign=middle;spacingLeft=4;spacingRight=4;overflow=hidden;points=[[0,0.5],[1,0.5]];portConstraint=eastwest;rotatable=0;fontStyle=2" parent="UaDYoVtovKC5BsyJQfSs-9" vertex="1">
          <mxGeometry y="30" width="230" height="50" as="geometry" />
        </mxCell>
        <mxCell id="UaDYoVtovKC5BsyJQfSs-23" style="edgeStyle=orthogonalEdgeStyle;rounded=0;orthogonalLoop=1;jettySize=auto;html=1;entryX=0.005;entryY=0.37;entryDx=0;entryDy=0;entryPerimeter=0;strokeWidth=2;" parent="WIyWlLk6GJQsqaUBKTNV-1" source="UaDYoVtovKC5BsyJQfSs-14" target="UaDYoVtovKC5BsyJQfSs-20" edge="1">
          <mxGeometry relative="1" as="geometry">
            <Array as="points">
              <mxPoint x="205" y="760" />
              <mxPoint x="420" y="760" />
              <mxPoint x="420" y="240" />
              <mxPoint x="516" y="240" />
              <mxPoint x="516" y="241" />
            </Array>
            <mxPoint x="516.09" y="265.01" as="targetPoint" />
          </mxGeometry>
        </mxCell>
        <mxCell id="UaDYoVtovKC5BsyJQfSs-14" value="UDPServer" style="swimlane;fontStyle=1;childLayout=stackLayout;horizontal=1;startSize=30;horizontalStack=0;resizeParent=1;resizeParentMax=0;resizeLast=0;collapsible=1;marginBottom=0;rounded=1;shadow=1;sketch=1;" parent="WIyWlLk6GJQsqaUBKTNV-1" vertex="1">
          <mxGeometry x="90" y="600" width="230" height="120" as="geometry" />
        </mxCell>
        <mxCell id="UaDYoVtovKC5BsyJQfSs-15" value="+ getRequest(): String" style="text;align=left;verticalAlign=middle;spacingLeft=4;spacingRight=4;overflow=hidden;points=[[0,0.5],[1,0.5]];portConstraint=eastwest;rotatable=0;fontStyle=2" parent="UaDYoVtovKC5BsyJQfSs-14" vertex="1">
          <mxGeometry y="30" width="230" height="30" as="geometry" />
        </mxCell>
        <mxCell id="FW9dBRoeOiZbywd23JoA-9" value="+ execute(): void" style="text;align=left;verticalAlign=middle;spacingLeft=4;spacingRight=4;overflow=hidden;points=[[0,0.5],[1,0.5]];portConstraint=eastwest;rotatable=0;fontStyle=2" parent="UaDYoVtovKC5BsyJQfSs-14" vertex="1">
          <mxGeometry y="60" width="230" height="20" as="geometry" />
        </mxCell>
        <mxCell id="UaDYoVtovKC5BsyJQfSs-16" value="+ sendReply(reply: bytes, clientHost:&#xa;InetAddress, clientPort: int):" style="text;align=left;verticalAlign=middle;spacingLeft=4;spacingRight=4;overflow=hidden;points=[[0,0.5],[1,0.5]];portConstraint=eastwest;rotatable=0;fontStyle=2" parent="UaDYoVtovKC5BsyJQfSs-14" vertex="1">
          <mxGeometry y="80" width="230" height="40" as="geometry" />
        </mxCell>
        <mxCell id="UaDYoVtovKC5BsyJQfSs-32" style="edgeStyle=orthogonalEdgeStyle;rounded=0;orthogonalLoop=1;jettySize=auto;html=1;strokeWidth=2;entryX=0.5;entryY=0;entryDx=0;entryDy=0;" parent="WIyWlLk6GJQsqaUBKTNV-1" source="UaDYoVtovKC5BsyJQfSs-19" target="UaDYoVtovKC5BsyJQfSs-24" edge="1">
          <mxGeometry relative="1" as="geometry">
            <mxPoint x="635" y="350" as="targetPoint" />
            <Array as="points" />
          </mxGeometry>
        </mxCell>
        <mxCell id="UaDYoVtovKC5BsyJQfSs-19" value="Dispatcher" style="swimlane;fontStyle=1;childLayout=stackLayout;horizontal=1;startSize=30;horizontalStack=0;resizeParent=1;resizeParentMax=0;resizeLast=0;collapsible=1;marginBottom=0;rounded=1;shadow=1;sketch=1;" parent="WIyWlLk6GJQsqaUBKTNV-1" vertex="1">
          <mxGeometry x="520" y="200" width="230" height="60" as="geometry" />
        </mxCell>
        <mxCell id="UaDYoVtovKC5BsyJQfSs-20" value="+ invoke(message: string):" style="text;align=left;verticalAlign=middle;spacingLeft=4;spacingRight=4;overflow=hidden;points=[[0,0.5],[1,0.5]];portConstraint=eastwest;rotatable=0;fontStyle=2" parent="UaDYoVtovKC5BsyJQfSs-19" vertex="1">
          <mxGeometry y="30" width="230" height="30" as="geometry" />
        </mxCell>
        <mxCell id="FW9dBRoeOiZbywd23JoA-0" style="edgeStyle=orthogonalEdgeStyle;rounded=0;orthogonalLoop=1;jettySize=auto;html=1;strokeWidth=2;entryX=0.5;entryY=0;entryDx=0;entryDy=0;" parent="WIyWlLk6GJQsqaUBKTNV-1" source="UaDYoVtovKC5BsyJQfSs-24" target="UaDYoVtovKC5BsyJQfSs-28" edge="1">
          <mxGeometry relative="1" as="geometry">
            <mxPoint x="635" y="580" as="targetPoint" />
          </mxGeometry>
        </mxCell>
        <mxCell id="UaDYoVtovKC5BsyJQfSs-24" value="Skeleton CurrencyConverter" style="swimlane;fontStyle=1;childLayout=stackLayout;horizontal=1;startSize=30;horizontalStack=0;resizeParent=1;resizeParentMax=0;resizeLast=0;collapsible=1;marginBottom=0;rounded=1;shadow=1;sketch=1;" parent="WIyWlLk6GJQsqaUBKTNV-1" vertex="1">
          <mxGeometry x="520" y="360" width="230" height="120" as="geometry" />
        </mxCell>
        <mxCell id="FW9dBRoeOiZbywd23JoA-1" value="+ convert(args: string): string" style="text;align=left;verticalAlign=middle;spacingLeft=4;spacingRight=4;overflow=hidden;points=[[0,0.5],[1,0.5]];portConstraint=eastwest;rotatable=0;fontStyle=2;shadow=0;labelBorderColor=none;labelBackgroundColor=none;" parent="UaDYoVtovKC5BsyJQfSs-24" vertex="1">
          <mxGeometry y="30" width="230" height="30" as="geometry" />
        </mxCell>
        <mxCell id="FW9dBRoeOiZbywd23JoA-3" value="+ currencies_available(): string" style="text;align=left;verticalAlign=middle;spacingLeft=4;spacingRight=4;overflow=hidden;points=[[0,0.5],[1,0.5]];portConstraint=eastwest;rotatable=0;shadow=0;fontStyle=2;labelBorderColor=none;labelBackgroundColor=none;" parent="UaDYoVtovKC5BsyJQfSs-24" vertex="1">
          <mxGeometry y="60" width="230" height="30" as="geometry" />
        </mxCell>
        <mxCell id="FW9dBRoeOiZbywd23JoA-2" value="+ currency_exists(args: string): string" style="text;align=left;verticalAlign=middle;spacingLeft=4;spacingRight=4;overflow=hidden;points=[[0,0.5],[1,0.5]];portConstraint=eastwest;rotatable=0;shadow=0;fontStyle=2;labelBorderColor=none;labelBackgroundColor=none;" parent="UaDYoVtovKC5BsyJQfSs-24" vertex="1">
          <mxGeometry y="90" width="230" height="30" as="geometry" />
        </mxCell>
        <mxCell id="UaDYoVtovKC5BsyJQfSs-28" value="CurrencyConverter" style="swimlane;fontStyle=1;childLayout=stackLayout;horizontal=1;startSize=30;horizontalStack=0;resizeParent=1;resizeParentMax=0;resizeLast=0;collapsible=1;marginBottom=0;rounded=1;shadow=1;sketch=1;" parent="WIyWlLk6GJQsqaUBKTNV-1" vertex="1">
          <mxGeometry x="510" y="600" width="250" height="120" as="geometry" />
        </mxCell>
        <mxCell id="UaDYoVtovKC5BsyJQfSs-40" value="+ convert(currency_from: string, currency_to:&#xa;string, amount: float): float" style="text;align=left;verticalAlign=middle;spacingLeft=4;spacingRight=4;overflow=hidden;points=[[0,0.5],[1,0.5]];portConstraint=eastwest;rotatable=0;fontStyle=2;shadow=0;labelBorderColor=none;labelBackgroundColor=none;" parent="WIyWlLk6GJQsqaUBKTNV-1" vertex="1">
          <mxGeometry x="510" y="620" width="250" height="60" as="geometry" />
        </mxCell>
        <mxCell id="UaDYoVtovKC5BsyJQfSs-41" value="+ currency_exists(currency: string): boolean" style="text;align=left;verticalAlign=middle;spacingLeft=4;spacingRight=4;overflow=hidden;points=[[0,0.5],[1,0.5]];portConstraint=eastwest;rotatable=0;shadow=0;fontStyle=2;labelBorderColor=none;labelBackgroundColor=none;" parent="WIyWlLk6GJQsqaUBKTNV-1" vertex="1">
          <mxGeometry x="510" y="660" width="250" height="40" as="geometry" />
        </mxCell>
        <mxCell id="UaDYoVtovKC5BsyJQfSs-42" value="+ currencies_available(): list" style="text;align=left;verticalAlign=middle;spacingLeft=4;spacingRight=4;overflow=hidden;points=[[0,0.5],[1,0.5]];portConstraint=eastwest;rotatable=0;shadow=0;fontStyle=2;labelBorderColor=none;labelBackgroundColor=none;" parent="WIyWlLk6GJQsqaUBKTNV-1" vertex="1">
          <mxGeometry x="510" y="690" width="230" height="30" as="geometry" />
        </mxCell>
      </root>
    </mxGraphModel>
  </diagram>
</mxfile>
